#N canvas 0 0 1920 974 12;
#X obj 225 385 dac~;
#X obj 74 174 line~;
#X obj 74 198 sqrt~;
#X obj 74 222 *~ 20;
#X obj 74 294 lop~ 1000;
#X obj 73 120 bng 15 250 50 0 empty empty empty 17 7 0 10 #fcfcfc #000000 #000000;
#X obj 74 270 cos~;
#X obj 74 246 -~ 0.25;
#X msg 73 143 0 \, 1 100;
#N canvas 0 0 1920 974 osc_generator 0;
#X obj 136 319 oscparse;
#X obj 136 294 netreceive -u -b 11111;
#X obj 136 345 list trim;
#X obj 136 369 outlet;
#X connect 0 0 2 0;
#X connect 1 0 0 0;
#X connect 2 0 3 0;
#X restore 71 38 pd osc_generator;
#X obj 72 88 select 0;
#X obj 72 65 route drum;
#X obj 243 90 select 0;
#X obj 248 119 bng 15 250 50 0 empty empty empty 17 7 0 10 #fcfcfc #000000 #000000;
#X obj 248 139 t b b;
#X obj 248 187 pow~ 4;
#X obj 248 211 *~;
#X obj 248 235 +~;
#X obj 248 259 *~;
#X msg 378 152 1 \, 0 200;
#X obj 378 176 line~;
#X obj 378 200 pow~ 4;
#X obj 378 224 *~;
#X obj 456 155 noise~;
#X obj 456 179 hip~ 3000;
#X obj 456 203 bp~ 5000 2;
#X obj 304 195 osc~ 200;
#X msg 248 163 0 \, 1 100;
#X obj 243 67 route snare;
#X connect 1 0 2 0;
#X connect 2 0 3 0;
#X connect 3 0 7 0;
#X connect 4 0 0 0;
#X connect 4 0 0 1;
#X connect 5 0 8 0;
#X connect 6 0 4 0;
#X connect 7 0 6 0;
#X connect 8 0 1 0;
#X connect 9 0 11 0;
#X connect 9 0 28 0;
#X connect 10 1 5 0;
#X connect 11 0 10 0;
#X connect 12 1 13 0;
#X connect 13 0 14 0;
#X connect 14 0 27 0;
#X connect 14 1 19 0;
#X connect 15 0 16 0;
#X connect 16 0 17 0;
#X connect 17 0 18 0;
#X connect 18 0 0 0;
#X connect 18 0 0 1;
#X connect 19 0 20 0;
#X connect 20 0 21 0;
#X connect 21 0 22 0;
#X connect 22 0 17 1;
#X connect 23 0 24 0;
#X connect 24 0 25 0;
#X connect 25 0 22 1;
#X connect 26 0 16 1;
#X connect 27 0 15 0;
#X connect 28 0 12 0;
