#N canvas 640 241 1278 627 12;
#X obj 63 332 dac~;
#X obj 72 65 route trigger;
#X obj 74 174 line~;
#X obj 74 198 sqrt~;
#X obj 74 222 *~ 20;
#X obj 74 294 lop~ 1000;
#X obj 73 120 bng 15 250 50 0 empty empty empty 17 7 0 10 #fcfcfc #000000 #000000;
#X obj 74 270 cos~;
#X obj 74 246 -~ 0.25;
#X msg 73 143 0 \, 1 100;
#N canvas 0 0 1920 974 osc_generator 0;
#X obj 136 319 oscparse;
#X obj 136 294 netreceive -u -b 11111;
#X obj 136 345 list trim;
#X obj 136 369 outlet;
#X connect 0 0 2 0;
#X connect 1 0 0 0;
#X connect 2 0 3 0;
#X restore 71 38 pd osc_generator;
#X obj 72 88 select 0;
#X obj 329 45 bng 15 250 50 0 empty empty empty 17 7 0 10 #fcfcfc #000000 #000000;
#X obj 247 237 dac~;
#X obj 242 170 *~;
#X floatatom 337 152 5 0 1 0 - - - 0;
#X obj 332 97 line;
#X msg 331 66 1 \, 0 200;
#X obj 244 117 osc~ \$1;
#X floatatom 252 86 5 200 10000 0 - - - 0;
#X connect 1 0 11 0;
#X connect 2 0 3 0;
#X connect 3 0 4 0;
#X connect 4 0 8 0;
#X connect 5 0 0 0;
#X connect 5 0 0 1;
#X connect 6 0 9 0;
#X connect 7 0 5 0;
#X connect 8 0 7 0;
#X connect 9 0 2 0;
#X connect 10 0 1 0;
#X connect 11 1 12 0;
#X connect 12 0 17 0;
#X connect 14 0 13 0;
#X connect 15 0 14 1;
#X connect 16 0 15 0;
#X connect 17 0 16 0;
#X connect 18 0 14 0;
#X connect 19 0 18 0;
